<svg xmlns="http://www.w3.org/2000/svg" viewBox="0 0 500 500" width="500" height="500" role="img" aria-label="Koretex">
  <defs>
    <linearGradient id="tile" x1="0" y1="0" x2="1" y2="1">
      <stop offset="0" stop-color="#3A7BF0"/>
      <stop offset="1" stop-color="#8B4BE6"/>
    </linearGradient>
  </defs>
  <rect width="500" height="500" rx="112" fill="url(#tile)"/>
  <g stroke="#ffffff" stroke-opacity="0.4" stroke-width="4" fill="none">
    <line x1="250" y1="250" x2="123" y2="177"/>
    <line x1="250" y1="250" x2="123" y2="323"/>
    <line x1="250" y1="103" x2="123" y2="177"/>
    <line x1="250" y1="103" x2="377" y2="177"/>
    <line x1="123" y1="177" x2="123" y2="323"/>
    <line x1="377" y1="177" x2="377" y2="323"/>
    <line x1="123" y1="323" x2="250" y2="397"/>
    <line x1="377" y1="323" x2="250" y2="397"/>
  </g>
  <g stroke="#ffffff" stroke-width="14" stroke-linecap="round" fill="none">
    <line x1="250" y1="103" x2="250" y2="397"/>
    <line x1="250" y1="250" x2="377" y2="177"/>
    <line x1="250" y1="250" x2="377" y2="323"/>
  </g>
  <circle cx="123" cy="177" r="13" fill="#ffffff" fill-opacity="0.5"/>
  <circle cx="123" cy="323" r="13" fill="#ffffff" fill-opacity="0.5"/>
  <circle cx="250" cy="103" r="20" fill="#ffffff"/>
  <circle cx="250" cy="397" r="20" fill="#ffffff"/>
  <circle cx="377" cy="177" r="20" fill="#ffffff"/>
  <circle cx="377" cy="323" r="20" fill="#ffffff"/>
  <circle cx="250" cy="250" r="30" fill="#ffffff"/>
</svg>
