<svg xmlns="http://www.w3.org/2000/svg" viewBox="0 0 500 500" width="500" height="500" role="img" aria-label="Koretex">
  <rect width="500" height="500" rx="112" fill="#04100A"/>
  <rect x="2" y="2" width="496" height="496" rx="110" fill="none" stroke="#2BFF88" stroke-opacity="0.30" stroke-width="3"/>
  <g stroke="#2BFF88" stroke-opacity="0.22" stroke-width="5" fill="none">
    <line x1="250" y1="250" x2="123" y2="177"/><line x1="250" y1="250" x2="123" y2="323"/>
    <line x1="250" y1="103" x2="123" y2="177"/><line x1="250" y1="103" x2="377" y2="177"/>
    <line x1="123" y1="177" x2="123" y2="323"/><line x1="377" y1="177" x2="377" y2="323"/>
    <line x1="123" y1="323" x2="250" y2="397"/><line x1="377" y1="323" x2="250" y2="397"/>
  </g>
  <g stroke="#2BFF88" stroke-width="15" stroke-linecap="round" fill="none">
    <line x1="250" y1="103" x2="250" y2="397"/><line x1="250" y1="250" x2="377" y2="177"/><line x1="250" y1="250" x2="377" y2="323"/>
  </g>
  <circle cx="123" cy="177" r="13" fill="#2BFF88" fill-opacity="0.5"/><circle cx="123" cy="323" r="13" fill="#2BFF88" fill-opacity="0.5"/>
  <circle cx="250" cy="103" r="20" fill="#2BFF88"/><circle cx="250" cy="397" r="20" fill="#2BFF88"/>
  <circle cx="377" cy="177" r="20" fill="#2BFF88"/><circle cx="377" cy="323" r="20" fill="#2BFF88"/>
  <circle cx="250" cy="250" r="30" fill="#EAFFF2"/>
</svg>
